<svg width="30" height="25" viewBox="0 0 30 25" fill="none" xmlns="http://www.w3.org/2000/svg">
<path fill-rule="evenodd" clip-rule="evenodd" d="M0 2.5C0 1.11929 0.95939 0 2.14286 0H27.8571C29.0406 0 30 1.11929 30 2.5C30 3.88071 29.0406 5 27.8571 5H2.14286C0.95939 5 0 3.88071 0 2.5ZM0 12.5C0 11.1193 0.95939 10 2.14286 10H27.8571C29.0406 10 30 11.1193 30 12.5C30 13.8807 29.0406 15 27.8571 15H2.14286C0.95939 15 0 13.8807 0 12.5ZM0 22.5C0 21.1193 0.95939 20 2.14286 20H27.8571C29.0406 20 30 21.1193 30 22.5C30 23.8807 29.0406 25 27.8571 25H2.14286C0.95939 25 0 23.8807 0 22.5Z" fill="#DD700B"/>
</svg>
