<svg width="30" height="30" viewBox="0 0 30 30" fill="none" xmlns="http://www.w3.org/2000/svg">
<path fill-rule="evenodd" clip-rule="evenodd" d="M0.51687 0.51687C1.20603 -0.17229 2.32338 -0.17229 3.01254 0.51687L15 12.5043L26.9875 0.51687C27.6766 -0.17229 28.794 -0.17229 29.4831 0.51687C30.1723 1.20603 30.1723 2.32338 29.4831 3.01254L17.4957 15L29.4831 26.9875C30.1723 27.6766 30.1723 28.794 29.4831 29.4831C28.794 30.1723 27.6766 30.1723 26.9875 29.4831L15 17.4957L3.01254 29.4831C2.32338 30.1723 1.20603 30.1723 0.51687 29.4831C-0.17229 28.794 -0.17229 27.6766 0.51687 26.9875L12.5043 15L0.51687 3.01254C-0.17229 2.32338 -0.17229 1.20603 0.51687 0.51687Z" fill="white"/>
</svg>
